<svg width="64" height="62" viewBox="0 0 64 62" fill="none" xmlns="http://www.w3.org/2000/svg">
<path d="M50 11.625H14C12.4093 11.6268 10.8842 12.2398 9.75941 13.3294C8.63459 14.4191 8.00185 15.8965 8 17.4375V40.6875C8.00185 42.2285 8.63459 43.7059 9.75941 44.7956C10.8842 45.8852 12.4093 46.4982 14 46.5H16V55.6508L32.531 46.5H50C51.5907 46.4982 53.1158 45.8852 54.2406 44.7956C55.3654 43.7059 55.9981 42.2285 56 40.6875V17.4375C55.9981 15.8965 55.3654 14.4191 54.2406 13.3294C53.1158 12.2398 51.5907 11.6268 50 11.625ZM52 40.6875C52 41.2014 51.7893 41.6942 51.4142 42.0575C51.0391 42.4209 50.5304 42.625 50 42.625H31.469L20 48.9742V42.625H14C13.4696 42.625 12.9609 42.4209 12.5858 42.0575C12.2107 41.6942 12 41.2014 12 40.6875V17.4375C12 16.9236 12.2107 16.4308 12.5858 16.0675C12.9609 15.7041 13.4696 15.5 14 15.5H50C50.5304 15.5 51.0391 15.7041 51.4142 16.0675C51.7893 16.4308 52 16.9236 52 17.4375V40.6875Z" fill="#1E1919"/>
<path d="M41 23.25H23V27.125H41V23.25Z" fill="#1E1919"/>
<path d="M36 31H23V34.875H36V31Z" fill="#1E1919"/>
</svg>
