<svg width="64" height="64" viewBox="0 0 64 64" fill="none" xmlns="http://www.w3.org/2000/svg">
<path d="M58 48H53V43H49V48H44V52H49V57H53V52H58V48Z" fill="#1E1919"/>
<path d="M23 34H41C42.5924 34.0022 44.148 34.4791 45.4681 35.3697C46.7881 36.2603 47.8127 37.5243 48.411 39H52.605C51.939 36.4273 50.4384 34.1481 48.3384 32.5195C46.2384 30.8909 43.6575 30.0048 41 30H39.956C41.4052 27.5907 42.1159 24.8092 42 22C42 14.486 38.262 10 32 10C25.738 10 22 14.486 22 22C21.8841 24.8092 22.5948 27.5907 24.044 30H23C19.8185 30.0037 16.7684 31.2692 14.5188 33.5188C12.2692 35.7684 11.0037 38.8185 11 42V52H40V48H15V42C15.0024 39.879 15.846 37.8456 17.3458 36.3458C18.8456 34.846 20.879 34.0024 23 34ZM26 22C26 16.691 28.019 14 32 14C35.981 14 38 16.691 38 22C38 27.309 35.981 30 32 30C28.019 30 26 27.309 26 22Z" fill="#1E1919"/>
</svg>
