<svg width="64" height="64" viewBox="0 0 64 64" fill="none" xmlns="http://www.w3.org/2000/svg">
<path d="M25.4141 28.586L22.5861 31.414L31.0001 39.828L43.4141 27.414L40.5861 24.586L31.0001 34.172L25.4141 28.586Z" fill="#1E1919"/>
<path d="M32.0001 7.73999L11.0001 18.793V27.415C10.9867 32.222 12.1972 36.9534 14.5175 41.1633C16.8379 45.3733 20.1917 48.9233 24.2631 51.479L32.0001 56.365L39.7371 51.478C43.8086 48.9226 47.1624 45.3728 49.4828 41.163C51.8032 36.9531 53.0136 32.2219 53.0001 27.415V18.793L32.0001 7.73999ZM49.0001 27.415C49.0122 31.5471 47.972 35.6142 45.9776 39.2331C43.9831 42.852 41.1 45.9035 37.6001 48.1L32.0001 51.635L26.4001 48.1C22.9004 45.9033 20.0175 42.8517 18.023 39.2329C16.0286 35.614 14.9883 31.547 15.0001 27.415V21.207L32.0001 12.26L49.0001 21.207V27.415Z" fill="#1E1919"/>
</svg>
