<svg width="64" height="64" viewBox="0 0 64 64" fill="none" xmlns="http://www.w3.org/2000/svg">
<path d="M8.143 21.257L10.743 23.857C13.5741 22.7307 16.6979 22.5711 19.629 23.403L21.451 23.924L22.551 20.078L20.729 19.557C19.0004 19.0728 17.2083 18.8536 15.414 18.907C18.641 14.323 24.207 12 32 12C45.271 12 52 18.729 52 32H56C56 16.523 47.477 8 32 8C23.607 8 17.165 10.529 13.1 15.363C13.0438 13.9788 12.8249 12.6061 12.448 11.273L11.927 9.451L8.081 10.551L8.6 12.372C9.43119 15.3031 9.27053 18.4267 8.143 21.257Z" fill="#1E1919"/>
<path d="M55.857 42.743L53.257 40.143C50.4257 41.2683 47.3022 41.4279 44.371 40.597L42.549 40.076L41.449 43.922L43.271 44.443C44.9995 44.9276 46.7916 45.1471 48.586 45.094C45.358 49.677 39.793 52 32 52C18.729 52 12 45.271 12 32H8C8 47.477 16.523 56 32 56C40.393 56 46.835 53.471 50.9 48.637C50.9562 50.0212 51.1751 51.3939 51.552 52.727L52.073 54.549L55.919 53.449L55.4 51.628C54.5688 48.6969 54.7295 45.5733 55.857 42.743Z" fill="#1E1919"/>
</svg>
